<?xml version="1.0" encoding="UTF-8" standalone="no"?>
<svg width="94px" height="123px" viewBox="0 0 94 123" version="1.1" xmlns="http://www.w3.org/2000/svg" xmlns:xlink="http://www.w3.org/1999/xlink">
    <!-- Generator: Sketch 3.7.1 (28215) - http://www.bohemiancoding.com/sketch -->
    <title>consent form img</title>
    <desc>Created with Sketch.</desc>
    <defs>
        <filter x="-50%" y="-50%" width="200%" height="200%" filterUnits="objectBoundingBox" id="filter-1">
            <feOffset dx="0" dy="1" in="SourceAlpha" result="shadowOffsetOuter1"></feOffset>
            <feGaussianBlur stdDeviation="2" in="shadowOffsetOuter1" result="shadowBlurOuter1"></feGaussianBlur>
            <feColorMatrix values="0 0 0 0 0   0 0 0 0 0   0 0 0 0 0  0 0 0 0.15 0" type="matrix" in="shadowBlurOuter1" result="shadowMatrixOuter1"></feColorMatrix>
            <feMerge>
                <feMergeNode in="shadowMatrixOuter1"></feMergeNode>
                <feMergeNode in="SourceGraphic"></feMergeNode>
            </feMerge>
        </filter>
    </defs>
    <g id="Kiosk-Phase-1" stroke="none" stroke-width="1" fill="none" fill-rule="evenodd">
        <g id="Patient-Detail-1a" transform="translate(-108.000000, -676.000000)" fill="#E8E8E8">
            <g id="patient-forms" filter="url(#filter-1)" transform="translate(45.000000, 589.000000)">
                <g id="1">
                    <g id="consent-form-img" transform="translate(67.000000, 90.000000)">
                        <path d="M0,0.0001796875 L0,115.00018 L72.8617083,115.00018 L86,101.821898 L86,0.0001796875 L0,0.0001796875 Z M2.50833333,2.51580469 L83.4916667,2.51580469 L83.4916667,99.6890078 L70.7332083,99.6890078 L70.7332083,112.484555 L2.50833333,112.484555 L2.50833333,2.51580469 Z M73.2415417,102.204633 L82.070875,102.204633 L73.2415417,111.059633 L73.2415417,102.204633 Z" id="Fill-1"></path>
                        <path d="M41.3883903,95.310551 L26.0577368,95.310551 C26.5417048,93.7688846 26.9769007,92.103204 27.3795821,90.3998328 C28.4550664,89.6873592 29.5117922,89.103763 30.4171999,88.7548212 C31.1637861,88.4678864 31.5402056,88.4460016 31.6827698,88.4460016 C31.7277901,88.4460016 31.7490497,88.449649 31.7515508,88.4447857 C31.7790632,88.512872 32.0529365,89.3457123 30.4759764,92.4095919 C30.1233176,93.0965332 30.1933491,93.6011007 30.6848204,93.9111362 C31.4514156,94.3938188 31.8090767,93.9719274 33.1396759,92.3937862 C34.0400813,91.3262916 35.5457593,89.5378127 36.2923455,89.0466192 C37.0864531,88.526246 37.5441592,88.5067928 37.6417032,88.5846056 C37.8230348,88.7219939 38.0081182,89.5718558 37.3840871,91.1937667 C37.2027555,91.6667227 37.450367,92.1907434 37.9343349,92.3682539 C38.4233051,92.5457644 38.9597967,92.3025993 39.1411284,91.8332908 C39.975254,89.6618268 39.8514482,87.9548082 38.8022257,87.1511477 C38.2882443,86.7584361 37.1452296,86.2842642 35.2418725,87.5353484 C34.7929203,87.830794 34.2589299,88.3353615 33.6611607,88.9748856 C33.7136843,88.2149948 33.5386055,87.6399094 33.1409264,87.2192339 C32.1204669,86.1359335 30.3171549,86.8301698 29.7268891,87.0587449 C29.1903975,87.2654352 28.5876261,87.5572333 27.9460872,87.9159017 C28.092403,87.2569244 28.2349672,86.6003788 28.3775314,85.9499123 C28.4338068,85.6909415 28.4888316,85.4344024 28.5451069,85.1790791 C30.0958052,84.3875768 31.4138987,83.4915136 32.0654421,82.6452992 C34.7579046,79.1558807 34.4477649,77.2494666 34.023824,76.4251371 C33.6486551,75.6956419 32.9145745,75.2603765 32.0604399,75.2603765 C30.7536014,75.2603765 29.4542663,76.2075044 28.6701632,77.7321493 C28.0561367,78.9260897 27.5021372,81.2033304 26.8993658,83.9328582 C24.6933724,84.9456406 22.1197135,85.7395745 20.7540986,85.7395745 C20.2363654,85.7395745 19.8161762,86.1480918 19.8161762,86.6514435 C19.8161762,87.1547951 20.2363654,87.5633124 20.7540986,87.5633124 C22.1397225,87.5633124 24.3132013,86.9882271 26.4153979,86.1444443 C26.1952988,87.1535793 25.9576918,88.2356638 25.7000758,89.3384173 C23.1901956,91.0977165 20.6503018,93.4260219 19.5510568,95.310551 L12.6254382,95.310551 C12.2802828,95.310551 12.0001566,95.5828959 12.0001566,95.9184637 C12.0001566,96.2540315 12.2802828,96.5263763 12.6254382,96.5263763 L18.9182719,96.5263763 C18.1654329,98.1336973 17.128716,100.924016 18.1929453,102.3441 C18.4843265,102.733164 19.0170664,103.148977 19.9562393,103.148977 C20.1600811,103.148977 20.3826813,103.129523 20.6252906,103.085754 C22.842539,102.689395 24.4144969,100.053485 25.6538049,96.5251605 L41.3883903,96.5251605 C41.7335457,96.5251605 42.0136719,96.2528156 42.0136719,95.9172479 C42.0136719,95.5816801 41.7335457,95.310551 41.3883903,95.310551 L41.3883903,95.310551 Z M30.3471684,78.547968 C30.863651,77.5436964 31.5977315,77.0853302 32.0591893,77.0853302 C32.2480243,77.0853302 32.3042997,77.1619272 32.3455683,77.2421717 C32.5756719,77.6883796 32.458119,79.0975211 30.5635158,81.5522723 C30.2658818,81.9389047 29.7431464,82.3571486 29.0815985,82.7741767 C29.5167945,80.9018058 29.9382342,79.3443336 30.3471684,78.547968 L30.3471684,78.547968 Z M25.0060132,92.1567003 C24.7196343,93.2448639 24.4144969,94.3099268 24.0880999,95.310551 L21.8008199,95.310551 C22.5811713,94.3208693 23.7304388,93.20231 25.0060132,92.1567003 L25.0060132,92.1567003 Z M20.286388,101.293627 C19.9224741,101.359282 19.742393,101.314296 19.7098784,101.270527 C19.3659735,100.810945 19.8649482,98.6710921 21.0067123,96.5263763 L23.6679107,96.5263763 C22.7124804,99.1270266 21.594477,101.060189 20.286388,101.293627 L20.286388,101.293627 Z" id="Shape"></path>
                        <path d="M12.6254382,92.7305698 C12.7855103,92.7305698 12.9455824,92.6709944 13.0681375,92.5530593 L14.5012829,91.1585077 L15.9344282,92.5518435 C16.0569834,92.6709944 16.2170555,92.7305698 16.3771276,92.7305698 C16.5371997,92.7305698 16.6972718,92.6709944 16.8198269,92.5530593 C17.0636868,92.3159734 17.0636868,91.9305568 16.8198269,91.6934709 L15.385431,90.2989193 L16.8185764,88.9055835 C17.0624362,88.6684976 17.0624362,88.283081 16.8185764,88.045995 C16.5747166,87.8089091 16.1782881,87.8089091 15.9344282,88.045995 L14.5012829,89.4393308 L13.0681375,88.045995 C12.8242777,87.8089091 12.4278492,87.8089091 12.1839894,88.045995 C11.9401296,88.283081 11.9401296,88.6684976 12.1839894,88.9055835 L13.6171348,90.2989193 L12.1839894,91.692255 C11.938879,91.9305568 11.938879,92.3147576 12.1827388,92.5530593 C12.305294,92.6709944 12.4653661,92.7305698 12.6254382,92.7305698 Z" id="Shape"></path>
                        <rect id="Rectangle-409" x="12" y="20" width="64" height="6"></rect>
                        <rect id="Rectangle-409-Copy" x="12" y="34" width="64" height="6"></rect>
                        <rect id="Rectangle-409-Copy-2" x="12" y="48" width="64" height="6"></rect>
                        <rect id="Rectangle-409-Copy-3" x="12" y="62" width="48" height="6"></rect>
                    </g>
                </g>
            </g>
        </g>
    </g>
</svg>